<svg width="90" height="88"><defs id="SvgjsDefs2100"></defs><g id="SvgjsG2101" featurekey="root" fill="#ffffff"></g><g id="SvgjsG2102" featurekey="symbol1" fill="#0c558b" transform="matrix(0.7423530685384293,0,0,0.7423530685384293,7.882622678670052,-8.02136098494086)"><path xmlns="http://www.w3.org/2000/svg" d="M97.147,65.645c0,3.806-3.085,8.369-6.891,8.369c-1.208,0-9.802,0-20.664,0c2.687-1.179,4.624-4.503,4.624-8.43v-9.669  c0-4.914-3.031-8.896-6.769-8.896c0,0-4.882,0-8.857,0c-2.24,0-2.606,1.091-3.433,1.746c-1.128-1.128-2.659-2.335-4.818-2.342  c-5.354-0.016-6.338,1.828-11.043,5.969c-3.007,2.646-14.328,7.163-13.73,0c0.597-7.164,7.165-12.414,7.165-12.414l-1.794-1.316  c0,0-16.255,13.429-11.03,25.44c2.027,4.664,5.678,7.882,9.976,9.912c-7.082,0-11.849,0-11.849,0S2.729,76.526,2.853,59.468  C2.946,46.43,14.125,44.403,19.989,44.403c0.021,0,0.039,0.002,0.061,0.002c-0.026-0.401-0.061-0.799-0.061-1.206  c0-10.45,8.472-18.923,18.923-18.923c9.639,0,17.577,7.214,18.757,16.535c1.208-0.657,2.597-1.031,4.071-1.031  c3.578,0,6.639,2.201,7.91,5.323c2.172-1.734,4.919-2.776,7.912-2.776c7.011,0,12.696,5.684,12.696,12.698  c0,1.308-0.198,2.572-0.568,3.759c0.188-0.014,0.377-0.028,0.566-0.028C94.063,58.756,97.147,61.839,97.147,65.645z M44.177,69.991  c-1.59,0.631-5.489,5.733-5.489,5.733s8.639-2.622,7.137-4.969C45.579,70.371,44.598,69.825,44.177,69.991z M45.715,59.414  c-0.584,0-1.059,0.453-1.059,1.012c0,0.559,0.475,1.012,1.059,1.012c0.581,0,1.054-0.453,1.054-1.012  C46.769,59.866,46.296,59.414,45.715,59.414z"></path></g><g id="SvgjsG2103" featurekey="text1" fill="#ffffff" transform="matrix(1,0,0,1,45,78)"><path d=""></path></g></svg>